<svg id="visual" viewBox="0 0 600 900" width="600" height="900" xmlns="http://www.w3.org/2000/svg" xmlns:xlink="http://www.w3.org/1999/xlink" version="1.1"><rect x="0" y="0" width="600" height="900" fill="#002233"></rect><path d="M0 698L14.3 704C28.7 710 57.3 722 85.8 705.5C114.3 689 142.7 644 171.2 619.5C199.7 595 228.3 591 257 614.5C285.7 638 314.3 689 343 698.5C371.7 708 400.3 676 428.8 657C457.3 638 485.7 632 514.2 649.7C542.7 667.3 571.3 708.7 585.7 729.3L600 750L600 901L585.7 901C571.3 901 542.7 901 514.2 901C485.7 901 457.3 901 428.8 901C400.3 901 371.7 901 343 901C314.3 901 285.7 901 257 901C228.3 901 199.7 901 171.2 901C142.7 901 114.3 901 85.8 901C57.3 901 28.7 901 14.3 901L0 901Z" fill="#0066FF" stroke-linecap="round" stroke-linejoin="miter"></path></svg>