<svg id="visual" viewBox="0 0 900 600" width="900" height="600" xmlns="http://www.w3.org/2000/svg" xmlns:xlink="http://www.w3.org/1999/xlink" version="1.1"><rect x="0" y="0" width="900" height="600" fill="#002233"></rect><path d="M0 405L21.5 401.3C43 397.7 86 390.3 128.8 382.2C171.7 374 214.3 365 257.2 369.2C300 373.3 343 390.7 385.8 401.2C428.7 411.7 471.3 415.3 514.2 413.5C557 411.7 600 404.3 642.8 395.7C685.7 387 728.3 377 771.2 369.3C814 361.7 857 356.3 878.5 353.7L900 351L900 601L878.5 601C857 601 814 601 771.2 601C728.3 601 685.7 601 642.8 601C600 601 557 601 514.2 601C471.3 601 428.7 601 385.8 601C343 601 300 601 257.2 601C214.3 601 171.7 601 128.8 601C86 601 43 601 21.5 601L0 601Z" fill="#000066"></path><path d="M0 376L21.5 382C43 388 86 400 128.8 399.2C171.7 398.3 214.3 384.7 257.2 382.2C300 379.7 343 388.3 385.8 395.2C428.7 402 471.3 407 514.2 409.8C557 412.7 600 413.3 642.8 410.7C685.7 408 728.3 402 771.2 402.5C814 403 857 410 878.5 413.5L900 417L900 601L878.5 601C857 601 814 601 771.2 601C728.3 601 685.7 601 642.8 601C600 601 557 601 514.2 601C471.3 601 428.7 601 385.8 601C343 601 300 601 257.2 601C214.3 601 171.7 601 128.8 601C86 601 43 601 21.5 601L0 601Z" fill="#070c78"></path><path d="M0 415L21.5 422.7C43 430.3 86 445.7 128.8 450C171.7 454.3 214.3 447.7 257.2 443.3C300 439 343 437 385.8 436C428.7 435 471.3 435 514.2 434.5C557 434 600 433 642.8 427C685.7 421 728.3 410 771.2 416.5C814 423 857 447 878.5 459L900 471L900 601L878.5 601C857 601 814 601 771.2 601C728.3 601 685.7 601 642.8 601C600 601 557 601 514.2 601C471.3 601 428.7 601 385.8 601C343 601 300 601 257.2 601C214.3 601 171.7 601 128.8 601C86 601 43 601 21.5 601L0 601Z" fill="#0f198a"></path><path d="M0 428L21.5 434C43 440 86 452 128.8 454.3C171.7 456.7 214.3 449.3 257.2 452.2C300 455 343 468 385.8 469.2C428.7 470.3 471.3 459.7 514.2 451.2C557 442.7 600 436.3 642.8 442.5C685.7 448.7 728.3 467.3 771.2 470.8C814 474.3 857 462.7 878.5 456.8L900 451L900 601L878.5 601C857 601 814 601 771.2 601C728.3 601 685.7 601 642.8 601C600 601 557 601 514.2 601C471.3 601 428.7 601 385.8 601C343 601 300 601 257.2 601C214.3 601 171.7 601 128.8 601C86 601 43 601 21.5 601L0 601Z" fill="#14269c"></path><path d="M0 490L21.5 489.5C43 489 86 488 128.8 486C171.7 484 214.3 481 257.2 475.8C300 470.7 343 463.3 385.8 465.8C428.7 468.3 471.3 480.7 514.2 483.2C557 485.7 600 478.3 642.8 475.7C685.7 473 728.3 475 771.2 472C814 469 857 461 878.5 457L900 453L900 601L878.5 601C857 601 814 601 771.2 601C728.3 601 685.7 601 642.8 601C600 601 557 601 514.2 601C471.3 601 428.7 601 385.8 601C343 601 300 601 257.2 601C214.3 601 171.7 601 128.8 601C86 601 43 601 21.5 601L0 601Z" fill="#1732af"></path><path d="M0 524L21.5 516.5C43 509 86 494 128.8 490.8C171.7 487.7 214.3 496.3 257.2 503.2C300 510 343 515 385.8 514.5C428.7 514 471.3 508 514.2 507.2C557 506.3 600 510.7 642.8 507.7C685.7 504.7 728.3 494.3 771.2 488.7C814 483 857 482 878.5 481.5L900 481L900 601L878.5 601C857 601 814 601 771.2 601C728.3 601 685.7 601 642.8 601C600 601 557 601 514.2 601C471.3 601 428.7 601 385.8 601C343 601 300 601 257.2 601C214.3 601 171.7 601 128.8 601C86 601 43 601 21.5 601L0 601Z" fill="#183fc2"></path><path d="M0 511L21.5 514.3C43 517.7 86 524.3 128.8 524.7C171.7 525 214.3 519 257.2 515.8C300 512.7 343 512.3 385.8 516.7C428.7 521 471.3 530 514.2 534.7C557 539.3 600 539.7 642.8 538.5C685.7 537.3 728.3 534.7 771.2 529.2C814 523.7 857 515.3 878.5 511.2L900 507L900 601L878.5 601C857 601 814 601 771.2 601C728.3 601 685.7 601 642.8 601C600 601 557 601 514.2 601C471.3 601 428.7 601 385.8 601C343 601 300 601 257.2 601C214.3 601 171.7 601 128.8 601C86 601 43 601 21.5 601L0 601Z" fill="#174bd6"></path><path d="M0 554L21.5 551C43 548 86 542 128.8 539C171.7 536 214.3 536 257.2 536.8C300 537.7 343 539.3 385.8 542.7C428.7 546 471.3 551 514.2 552.2C557 553.3 600 550.7 642.8 551.5C685.7 552.3 728.3 556.7 771.2 555.7C814 554.7 857 548.3 878.5 545.2L900 542L900 601L878.5 601C857 601 814 601 771.2 601C728.3 601 685.7 601 642.8 601C600 601 557 601 514.2 601C471.3 601 428.7 601 385.8 601C343 601 300 601 257.2 601C214.3 601 171.7 601 128.8 601C86 601 43 601 21.5 601L0 601Z" fill="#1159ea"></path><path d="M0 578L21.5 578.2C43 578.3 86 578.7 128.8 576C171.7 573.3 214.3 567.7 257.2 566.5C300 565.3 343 568.7 385.8 569.3C428.7 570 471.3 568 514.2 567.2C557 566.3 600 566.7 642.8 568.2C685.7 569.7 728.3 572.3 771.2 572C814 571.7 857 568.3 878.5 566.7L900 565L900 601L878.5 601C857 601 814 601 771.2 601C728.3 601 685.7 601 642.8 601C600 601 557 601 514.2 601C471.3 601 428.7 601 385.8 601C343 601 300 601 257.2 601C214.3 601 171.7 601 128.8 601C86 601 43 601 21.5 601L0 601Z" fill="#0066ff"></path></svg>