<svg id="visual" viewBox="0 0 900 600" width="900" height="600" xmlns="http://www.w3.org/2000/svg" xmlns:xlink="http://www.w3.org/1999/xlink" version="1.1"><rect x="0" y="0" width="900" height="600" fill="#002233"></rect><path d="M0 291L16.7 301.5C33.3 312 66.7 333 100 350.5C133.3 368 166.7 382 200 393.2C233.3 404.3 266.7 412.7 300 410.5C333.3 408.3 366.7 395.7 400 352.8C433.3 310 466.7 237 500 229.3C533.3 221.7 566.7 279.3 600 318.8C633.3 358.3 666.7 379.7 700 354.2C733.3 328.7 766.7 256.3 800 241C833.3 225.7 866.7 267.3 883.3 288.2L900 309L900 0L883.3 0C866.7 0 833.3 0 800 0C766.7 0 733.3 0 700 0C666.7 0 633.3 0 600 0C566.7 0 533.3 0 500 0C466.7 0 433.3 0 400 0C366.7 0 333.3 0 300 0C266.7 0 233.3 0 200 0C166.7 0 133.3 0 100 0C66.7 0 33.3 0 16.7 0L0 0Z" fill="#0066FF" stroke-linecap="round" stroke-linejoin="miter"></path></svg>